# AST/ASF file generated using VICON BodyLanguage
# -----------------------------------------------
:version 1.10
:name VICON
:units
  mass 1.0
  length 0.45
  angle deg
:documentation
   .ast/.asf automatically generated from VICON data using
   VICON BodyBuilder and BodyLanguage model FoxedUp or BRILLIANT.MOD
:root
   order TX TY TZ RX RY RZ
   axis XYZ
   position 0 0 0  
   orientation 0 0 0 
:bonedata
  begin
     id 1 
     name lhipjoint
     direction 0.54267 -0.795011 0.271047 
     length 2.39899 
     axis 0 0 0  XYZ
  end
  begin
     id 2 
     name lfemur
     direction 0.34202 -0.939693 0  
     length 7.49701  
     axis 0 0 20  XYZ
    dof rx ry rz
    limits (-160.0 20.0)
           (-70.0 70.0)
           (-60.0 70.0)
  end
  begin
     id 3 
     name ltibia
     direction 0.34202 -0.939693 0   
     length 8.1668   
     axis 0 0 20   XYZ
    dof rx
    limits (-10.0 170.0)
  end
  begin
     id 4 
     name lfoot
     direction 0.0736283 -0.202292 0.976554   
     length 2.13544   
     axis -90 7.62852e-016 20   XYZ
    dof rx rz
    limits (-45.0 90.0)
           (-70.0 20.0)
  end
  begin
     id 5 
     name ltoes
     direction 1.53557e-011 -4.22024e-011 1   
     length 1.07411   
     axis -90 7.62852e-016 20   XYZ
    dof rx
    limits (-90.0 20.0)
  end
  begin
     id 6 
     name rhipjoint
     direction -0.538061 -0.797813 0.272002   
     length 2.39057  
     axis 0 0 0  XYZ 
  end
  begin
     id 7 
     name rfemur
     direction -0.34202 -0.939693 0   
     length 7.50152   
     axis 0 0 -20   XYZ
    dof rx ry rz
    limits (-160.0 20.0)
           (-70.0 70.0)
           (-70.0 60.0)
  end
  begin
     id 8 
     name rtibia
     direction -0.34202 -0.939693 0   
     length 8.05793   
     axis 0 0 -20   XYZ
    dof rx
    limits (-10.0 170.0)
 end
 begin
     id 9 
     name rfoot
     direction -0.0765195 -0.210236 0.974652   
     length 2.28698  
     axis -90 -7.62852e-016 -20   XYZ
    dof rx rz
    limits (-45.0 90.0)
           (-20.0 70.0)
  end
  begin
     id 10 
     name rtoes
     direction -1.53542e-011 -4.21847e-011 1   
     length 1.14762   
     axis -90 -7.62852e-016 -20   XYZ
    dof rx
    limits (-90.0 20.0)
  end
  begin
     id 11 
     name lowerback
     direction -0.0217239 0.996592 -0.0795765   
     length 2.08176   
     axis 0 0 0   XYZ
    dof rx ry rz
    limits (-20.0 45.0)
           (-30.0 30.0)
           (-30.0 30.0)
  end
  begin
     id 12 
     name upperback
     direction -0.00563773 0.999651 -0.0258155   
     length 2.08898   
     axis 0 0 0   XYZ
    dof rx ry rz
    limits (-20.0 45.0)
           (-30.0 30.0)
           (-30.0 30.0)
  end
  begin
     id 13 
     name thorax
     direction 0.0032706 0.999923 0.0119599   
     length 2.0968   
     axis 0 0 0   XYZ
    dof rx ry rz
    limits (-20.0 45.0)
           (-30.0 30.0)
           (-30.0 30.0)
  end
  begin
     id 14 
     name lowerneck
     direction -0.0285886 0.99568 0.0883427   
     length 1.81272   
     axis 0 0 0   XYZ
    dof rx ry rz
    limits (-20.0 45.0)
           (-30.0 30.0)
           (-30.0 30.0)
  end
  begin
     id 15 
     name upperneck
     direction 0.0807535 0.97985 -0.18268   
     length 1.82518   
     axis 0 0 0   XYZ
    dof rx ry rz
    limits (-20.0 45.0)
           (-30.0 30.0)
           (-30.0 30.0)
  end
  begin
     id 16
     name head
     direction 0.0236605 0.997053 -0.0729767  
     length 1.84443  
     axis 0 0 0   XYZ
    dof rx ry rz
    limits (-20.0 45.0)
           (-30.0 30.0)
           (-30.0 30.0)
  end
  begin
     id 17 
     name lclavicle
     direction 0.918986 0.39378 -0.0200683  
     length 3.27822  
     axis 0 0 0   XYZ
    dof ry rz
    limits (-20.0 10.0)
           (0.0 20.0)
  end
  begin
     id 18 
     name lhumerus
     direction 1 -4.4897e-011 2.09544e-027   
     length 5.5568   
     axis 180 -30 -90   XYZ
    dof rx ry rz
    limits (-60.0 90.0)
           (-90.0 90.0)
           (-90.0 90.0)
  end
  begin
     id 19
     name lradius
     direction 1 -4.48957e-011 -1.27696e-026   
     length 3.63979   
     axis 180 -30 -90   XYZ
    dof rx
    limits (-10.0 170.0)
  end
  begin
     id 20
     name lwrist
     direction 1 -4.49001e-011 -1.49001e-026   
     length 1.8199   
     axis 9.0955e-015 90 90   XYZ
    dof ry
    limits (-180.0 0.0)
 end
  begin
     id 21 
     name lhand
     direction 1 -4.48709e-011 -2.9758e-026   
     length 0.569419   
     axis 1.90115e-014 90 90   XYZ
    dof rx rz
    limits (-90.0 90.0)
           (-45.0 45.0)
  end
  begin
     id 22 
     name lfingers
     direction 1 -4.49175e-011 -5.96505e-026   
     length 0.45908   
     axis 3.80223e-014 90 90   XYZ
    dof rx
    limits (0.0 90.0)
  end
  begin
     id 23
     name lthumb
     direction 0.707107 -6.34864e-011 0.707107   
     length 0.65915   
     axis -90 45 -3.84942e-014   XYZ
    dof rx rz
    limits (-45.0 45.0)
           (-45.0 45.0)
  end
  begin
     id 24 
     name rclavicle
     direction -0.911913 0.396426 -0.106115   
     length 3.46301  
     axis 0 0 0   XYZ 
    dof ry rz
    limits (-10.0 20.0)
           (-20.0 0.0)
  end
  begin
     id 25 
     name rhumerus
     direction -1 -4.48965e-011 7.78516e-028  
     length 5.34339   
     axis 180 30 90   XYZ
    dof rx ry rz
    limits (-90.0 60.0)
           (-90.0 90.0)
           (-90.0 90.0)
  end
  begin
     id 26 
     name rradius
     direction -1 -4.48948e-011 -5.79823e-027   
     length 3.65101   
     axis 180 30 90   XYZ
    dof rx
    limits (-10.0 170.0)
  end
  begin
     id 27 
     name rwrist
     direction -1 -4.48995e-011 -1.48996e-026   
     length 1.8255   
     axis 9.0955e-015 -90 -90   XYZ
    dof ry
    limits (-180.0 0.0)
  end
  begin
     id 28
     name rhand
     direction -1 -4.48957e-011 -2.97937e-026   
     length 0.694249   
     axis 1.90115e-014 -90 -90   XYZ
    dof rx rz
    limits (-90.0 90.0)
           (-45.0 45.0)
  end
  begin
     id 29
     name rfingers
     direction -1 -4.4898e-011 -5.95943e-026   
     length 0.559721   
     axis 3.80223e-014 -90 -90   XYZ
    dof rx
    limits (0.0 90.0)
  end
  begin
     id 30
     name rthumb
     direction -0.707107 -6.34969e-011 0.707107   
     length 0.803651   
     axis -90 -45 3.84942e-014   XYZ
    dof rx rz
    limits (-45.0 45.0)
           (-45.0 45.0)
  end
:hierarchy
  begin
    root lhipjoint rhipjoint lowerback
    lhipjoint lfemur
    lfemur ltibia
    ltibia lfoot
    lfoot ltoes
    rhipjoint rfemur
    rfemur rtibia
    rtibia rfoot
    rfoot rtoes
    lowerback upperback
    upperback thorax
    thorax lowerneck lclavicle rclavicle
    lowerneck upperneck
    upperneck head
    lclavicle lhumerus
    lhumerus lradius
    lradius lwrist
    lwrist lhand lthumb
    lhand lfingers
    rclavicle rhumerus
    rhumerus rradius
    rradius rwrist
    rwrist rhand rthumb
    rhand rfingers
  end

#!OML:ASF H:\Terrain\Walking\May29\JustinRory\rory.ASF
:FULLY-SPECIFIED
:DEGREES
195
root 12.8844 17.9093 -17.2367 -17.1628 -68.3052 23.0068
lowerback 9.88618 -0.61938 -5.4551
upperback 4.66787 -1.43088 -0.239832
thorax -0.552326 -0.845861 2.96167
lowerneck -2.83781 12.8718 13.1676
upperneck 15.4209 19.9413 -21.6648
head 8.89451 8.88435 -7.35605
rclavicle -1.78906e-015 -1.90833e-014
rhumerus -34.6257 -14.8266 -58.3694
rradius 41.8092
rwrist -7.31485
rhand -19.1844 35.6446
rfingers 7.12502
rthumb 7.12719 5.78459
lclavicle -1.78906e-015 -1.90833e-014
lhumerus 4.94432 -7.39476 50.0827
lradius 30.1424
lwrist 18.5545
lhand -38.4145 37.0722
lfingers 7.12502
lthumb -11.439 66.7402
rfemur -38.8014 1.36619 13.9031
rtibia 64.679
rfoot -11.6896 -19.0376
rtoes 12.9896
lfemur -11.2054 3.86855 -26.6747
ltibia 30.5518
lfoot -15.8585 -7.11188
ltoes 14.3678
196
root 12.8814 17.9148 -17.1726 -15.81 -67.688 21.8752
lowerback 10.0448 -0.835647 -5.55028
upperback 4.7824 -1.72513 0.289467
thorax -0.470933 -1.00548 3.59628
lowerneck -2.40741 12.7377 12.8899
upperneck 15.2357 19.7773 -21.7784
head 8.70166 8.82433 -7.40627
rclavicle 8.74653e-014 -1.98785e-014
rhumerus -34.7209 -14.8499 -57.0916
rradius 41.7125
rwrist -8.09992
rhand -19.5377 35.6393
rfingers 7.12502
rthumb 6.78608 5.76803
lclavicle 8.74653e-014 -1.98785e-014
lhumerus 4.96998 -8.67482 50.525
lradius 31.5472
lwrist 21.9599
lhand -39.3204 35.4142
lfingers 7.12502
lthumb -12.3126 65.0317
rfemur -39.7511 1.10125 14.8448
rtibia 64.4413
rfoot -12.1535 -17.078
rtoes 9.21498
lfemur -11.7412 4.23004 -26.5582
ltibia 31.0297
lfoot -15.3633 -8.08883
ltoes 14.9993
197
root 12.8762 17.9159 -17.1024 -14.3855 -67.0289 20.7327
lowerback 10.1531 -1.1354 -5.14173
upperback 4.8218 -2.08712 0.507018
thorax -0.460272 -1.18348 3.63021
lowerneck -2.06727 12.6671 12.7624
upperneck 15.2432 19.6503 -21.5174
head 8.56812 8.79849 -7.33614
rclavicle -7.55382e-015 5.56597e-015
rhumerus -34.9833 -14.7993 -56.2824
rradius 41.565
rwrist -9.41234
rhand -20.0392 35.8362
rfingers 7.12502
rthumb 6.30201 5.94997
lclavicle -7.55382e-015 5.56597e-015
lhumerus 4.92385 -9.99147 50.6554
lradius 33.0461
lwrist 24.7748
lhand -39.6599 33.4588
lfingers 7.12502
lthumb -12.6399 63.0563
rfemur -40.6668 0.821212 15.8177
rtibia 63.9113
rfoot -12.6336 -15.2384
rtoes 4.95674
lfemur -12.2568 4.63559 -26.4628
ltibia 31.4041
lfoot -14.7809 -9.06855
ltoes 16.2852
198
root 12.8637 17.9132 -17.0172 -13.732 -66.4176 20.2522
lowerback 10.2344 -1.40851 -4.72961
upperback 4.94074 -2.41581 0.547643
thorax -0.365548 -1.34783 3.47222
lowerneck -1.99361 12.689 12.6738
upperneck 15.6109 19.6619 -21.064
head 8.61427 8.81512 -7.17122
rclavicle -2.06736e-014 9.54166e-015
rhumerus -35.2943 -14.5889 -55.6559
rradius 41.4565
rwrist -10.5269
rhand -20.851 35.6768
rfingers 7.12502
rthumb 5.51821 5.76861
lclavicle -2.06736e-014 9.54166e-015
lhumerus 4.78814 -10.8422 50.8893
lradius 34.6224
lwrist 26.5534
lhand -39.7815 32.1546
lfingers 7.12502
lthumb -12.7571 61.7449
rfemur -41.2224 0.483065 16.5607
rtibia 63.0596
rfoot -12.8825 -13.3428
rtoes 1.08806
lfemur -12.4346 4.75347 -26.6609
ltibia 31.6159
lfoot -14.3114 -9.77609
ltoes 18.1803
199
root 12.8436 17.9189 -16.9234 -13.5659 -65.8756 20.1697
lowerback 10.3796 -1.61921 -4.5125
upperback 5.0688 -2.68288 0.624962
thorax -0.293186 -1.48482 3.45862
lowerneck -1.84525 12.6963 12.5544
upperneck 15.9683 19.6676 -20.6814
head 8.64794 8.82794 -7.03327
rclavicle 5.4467e-014 1.66979e-014
rhumerus -35.6245 -14.8622 -54.621
rradius 41.1329
rwrist -9.46391
rhand -21.2023 35.0238
rfingers 7.12502
rthumb 5.17899 5.1071
lclavicle 5.4467e-014 1.66979e-014
lhumerus 4.33171 -11.5389 51.3701
lradius 36.2242
lwrist 27.3752
lhand -39.7063 30.5077
lfingers 7.12502
lthumb -12.6846 60.1025
rfemur -41.5071 0.191282 17.1693
rtibia 61.956
rfoot -13.2527 -11.3239
rtoes -2.10599
lfemur -12.3813 5.14846 -26.9955
ltibia 31.726
lfoot -13.7375 -10.6047
ltoes 19.3046
200
root 12.8284 17.9309 -16.8376 -12.8157 -65.2809 19.6292
lowerback 10.8132 -1.95792 -3.38318
upperback 4.8797 -3.0467 0.227745
thorax -0.7808 -1.62689 2.47472
lowerneck -1.39848 12.7062 12.9469
upperneck 16.285 19.6182 -20.1059
head 8.63402 8.87943 -6.93339
rclavicle 1.51076e-014 4.77083e-015
rhumerus -36.613 -15.4093 -54.0547
rradius 40.786
rwrist -8.05452
rhand -21.2808 34.669
rfingers 7.12502
rthumb 5.10327 4.75045
lclavicle 1.51076e-014 4.77083e-015
lhumerus 3.65373 -12.6792 51.2583
lradius 37.9494
lwrist 27.8096
lhand -39.6738 28.7801
lfingers 7.12502
lthumb -12.6533 58.3768
rfemur -41.9302 -0.0316565 18.0293
rtibia 60.6113
rfoot -13.6225 -9.59474
rtoes -5.62406
lfemur -12.5269 5.597 -27.085
ltibia 31.7381
lfoot -12.9171 -11.548
ltoes 20.513
201
root 12.8086 17.9371 -16.756 -12.2391 -64.5307 19.4225
lowerback 10.4807 -2.09427 -3.54632
upperback 5.07285 -3.22463 0.602136
thorax -0.353864 -1.73573 2.94955
lowerneck -1.57789 12.6702 12.9602
upperneck 16.7826 19.6577 -20.2362
head 8.86103 8.85657 -6.97549
rclavicle -3.65764e-014 7.95139e-016
rhumerus -36.7815 -15.5545 -52.7537
rradius 40.4485
rwrist -7.98151
rhand -21.0217 34.3909
rfingers 7.12502
rthumb 5.35341 4.47851
lclavicle -3.65764e-014 7.95139e-016
lhumerus 3.29447 -12.8361 52.4069
lradius 39.4886
lwrist 27.5745
lhand -39.8656 26.6088
lfingers 7.12502
lthumb -12.8383 56.1939
rfemur -42.4259 -0.273104 18.719
rtibia 59.1107
rfoot -14.2594 -8.114
rtoes -8.59773
lfemur -12.7631 5.59227 -27.3505
ltibia 31.6745
lfoot -12.3685 -12.2384
ltoes 20.9156
202
root 12.7702 17.9268 -16.6635 -12.7026 -63.82 20.1768
lowerback 10.2117 -2.13985 -3.99936
upperback 5.22659 -3.31445 0.757868
thorax -0.0018982 -1.80268 3.35437
lowerneck -1.72425 12.5653 13.144
upperneck 17.427 19.601 -20.3023
head 9.12604 8.79776 -7.04516
rclavicle 3.97569e-015 -1.03368e-014
rhumerus -37.2595 -15.9533 -51.3952
rradius 40.0385
rwrist -7.66086
rhand -19.9191 33.779
rfingers 7.12502
rthumb 6.41788 3.89623
lclavicle 3.97569e-015 -1.03368e-014
lhumerus 2.87945 -13.3512 53.4094
lradius 40.8909
lwrist 26.7456
lhand -39.194 25.0947
lfingers 7.12502
lthumb -12.1907 54.7194
rfemur -42.5913 -0.364958 18.9187
rtibia 57.5426
rfoot -14.902 -6.93906
rtoes -10.3501
lfemur -12.6579 5.83839 -28.0634
ltibia 31.5506
lfoot -12.0754 -13.0244
ltoes 20.2113
203
root 12.7265 17.9056 -16.5578 -13.607 -63.1299 21.229
lowerback 9.95878 -2.08524 -4.14501
upperback 5.42536 -3.24746 0.556651
thorax 0.333947 -1.78225 3.202
lowerneck -1.66708 12.3294 13.6219
upperneck 17.8005 19.2805 -20.2175
head 9.22097 8.67448 -7.15726
rclavicle 1.66979e-014 1.98785e-014
rhumerus -38.2913 -16.9718 -50.0816
rradius 39.648
rwrist -6.86957
rhand -18.6474 33.3299
rfingers 7.12502
rthumb 7.64545 3.4881
lclavicle 1.66979e-014 1.98785e-014
lhumerus 2.76062 -14.4272 54.105
lradius 42.1941
lwrist 25.6107
lhand -36.5083 25.8913
lfingers 7.12502
lthumb -9.60022 55.6526
rfemur -42.4707 -0.537166 18.939
rtibia 55.8694
rfoot -15.1786 -5.87392
rtoes -10.5702
lfemur -12.2457 6.31981 -28.9504
ltibia 31.3514
lfoot -11.6123 -13.8718
ltoes 20.0183
204
root 12.6904 17.8948 -16.4512 -14.5618 -62.2482 22.3592
lowerback 10.0642 -1.77169 -3.82334
upperback 5.24988 -2.81161 -0.0373485
thorax 0.00629465 -1.53588 2.37914
lowerneck -1.35959 11.7514 15.035
upperneck 18.5913 18.4594 -19.9671
head 9.38762 8.39425 -7.47177
rclavicle 2.38542e-015 -9.54166e-015
rhumerus -41.011 -18.5213 -48.4075
rradius 39.5223
rwrist -6.09974
rhand -18.3788 32.8243
rfingers 7.12502
rthumb 7.90473 2.9921
lclavicle 2.38542e-015 -9.54166e-015
lhumerus 2.80362 -16.9567 54.5898
lradius 43.5089
lwrist 24.4922
lhand -31.9067 27.9842
lfingers 7.12502
lthumb -5.15865 57.9014
rfemur -42.3033 -0.854415 18.8185
rtibia 54.0369
rfoot -15.4796 -4.83622
rtoes -10.2591
lfemur -11.8114 6.61292 -29.9476
ltibia 31.0518
lfoot -10.9083 -14.7161
ltoes 20.7517
205
root 12.6499 17.9013 -16.348 -14.802 -61.4675 22.8154
lowerback 10.0114 -2.90972 -4.72494
upperback 5.49868 -4.39006 0.76348
thorax 0.547076 -2.3778 3.83324
lowerneck -1.36775 12.904 13.1078
upperneck 17.9969 20.2423 -20.5399
head 9.41145 9.0771 -7.05863
rclavicle -7.7526e-014 -3.18055e-014
rhumerus -38.24 -16.6727 -48.0736
rradius 38.4088
rwrist -5.57389
rhand -17.6305 33.4335
rfingers 7.12502
rthumb 8.62697 3.62981
lclavicle -7.7526e-014 -3.18055e-014
lhumerus 0.0986942 -13.6579 56.187
lradius 44.7886
lwrist 22.5376
lhand -28.1661 26.7526
lfingers 7.12502
lthumb -1.54633 56.7268
rfemur -42.0325 -0.645377 18.9231
rtibia 51.9517
rfoot -15.9345 -4.28327
rtoes -9.89915
lfemur -11.4906 7.0039 -30.573
ltibia 30.7233
lfoot -10.072 -15.6044
ltoes 22.6107
206
root 12.598 17.9097 -16.2411 -14.8103 -60.8006 23.0947
lowerback 9.88379 -3.36624 -4.83565
upperback 5.45315 -4.9953 0.961583
thorax 0.660431 -2.6877 4.13837
lowerneck -0.988181 13.2418 12.6192
upperneck 17.7806 20.7527 -20.6351
head 9.32375 9.31267 -6.95126
rclavicle -3.37934e-014 -2.70347e-014
rhumerus -38.0862 -16.2763 -47.1451
rradius 37.7124
rwrist -5.10601
rhand -16.2884 34.0356
rfingers 7.12502
rthumb 9.92192 4.28939
lclavicle -3.37934e-014 -2.70347e-014
lhumerus -1.56598 -12.9338 57.1491
lradius 46.1128
lwrist 20.709
lhand -25.9589 23.5401
lfingers 7.12502
lthumb 0.585407 53.5191
rfemur -41.6604 -0.36391 19.1104
rtibia 49.6289
rfoot -16.0377 -3.94446
rtoes -9.75773
lfemur -11.2477 7.51485 -31.0993
ltibia 30.4736
lfoot -9.34774 -16.0962
ltoes 24.2296
207
root 12.5426 17.9069 -16.132 -14.9613 -59.9448 23.4404
lowerback 9.62932 -3.56005 -4.89015
upperback 5.48092 -5.24264 0.98996
thorax 0.863412 -2.81878 4.19383
lowerneck -0.954134 13.1425 12.641
upperneck 18.0965 20.6292 -20.4764
head 9.38446 9.25426 -6.92942
rclavicle 3.97569e-016 1.43125e-014
rhumerus -38.7477 -16.4472 -46.1132
rradius 37.4368
rwrist -4.33974
rhand -16.1683 32.1464
rfingers 7.12502
rthumb 10.0378 2.40574
lclavicle 3.97569e-016 1.43125e-014
lhumerus -2.51027 -13.0834 58.091
lradius 47.181
lwrist 18.6615
lhand -24.9382 19.5892
lfingers 7.12502
lthumb 1.5713 49.5631
rfemur -41.0929 -0.659634 19.2516
rtibia 47.1644
rfoot -15.7218 -3.37569
rtoes -10.1262
lfemur -10.9253 8.0151 -31.6811
ltibia 30.3488
lfoot -8.73141 -16.669
ltoes 25.0691
